<svg id="Layer_1" data-name="Layer 1" xmlns="http://www.w3.org/2000/svg" viewBox="0 0 2880 959.81"><defs><style>.cls-1{fill:#e6e7db;}</style></defs><title>Artboard 19</title><path class="cls-1" d="M91.77,173.56C74.2,166.45,67.53,160.22,67.53,152c0-6,6-11.34,14-11.34,13.57,0,29.8,12.23,31.81,13.34,2,1.56,6-.44,7.56-2.89L132.24,134c.89-1.55,1.33-5.56-1.33-7.12-6.68-4.89-24.46-16.68-47.59-16.68-34.25,0-51.38,22.24-51.38,44.26,0,26.69,24,41.59,43.15,49.15C90.21,209.59,98,216.7,98,226c0,7.79-6.45,13.34-15.35,13.34C68,239.39,52,227.6,51.07,227.16c-1.55-1.11-5.78-1.56-7.56,1.33L33.06,246.95c-1.78,3.11-1.11,4,1.11,6.23,5.11,5.11,21.13,17.12,50,17.12,32.69,0,52.48-23.13,52.48-46C136.69,194,109.11,180.46,91.77,173.56Z"/><path class="cls-1" d="M337,112.4H363.7a4.22,4.22,0,0,1,4.22,4.22V263.85a4.23,4.23,0,0,1-4.23,4.23H337a4.22,4.22,0,0,1-4.22-4.22V116.63A4.23,4.23,0,0,1,337,112.4Z"/><path class="cls-1" d="M663,235.39H610.07V116.63a4.37,4.37,0,0,0-4.22-4.23H579.38a4.22,4.22,0,0,0-4.22,4.23V263.85a4.22,4.22,0,0,0,4.22,4.23H663a4.22,4.22,0,0,0,4.22-4.23V239.61A4.22,4.22,0,0,0,663,235.39Z"/><path class="cls-1" d="M987,112.4H960.5a4.23,4.23,0,0,0-4.23,4.23v56h-63.6v-56a4.22,4.22,0,0,0-4.22-4.23H862a4.37,4.37,0,0,0-4.22,4.23V263.85a4.37,4.37,0,0,0,4.22,4.23h26.47a4.22,4.22,0,0,0,4.22-4.23V205.36h63.6v58.49a4.23,4.23,0,0,0,4.23,4.23H987a4.37,4.37,0,0,0,4.22-4.23V116.63A4.37,4.37,0,0,0,987,112.4Z"/><path class="cls-1" d="M1266.89,270.3a80.06,80.06,0,1,0,0-160.12c-44.48,0-79.84,35.81-79.84,80.28A79.35,79.35,0,0,0,1266.89,270.3Zm0-124.54c24.47,0,44.48,20.24,44.48,44.7a44.37,44.37,0,0,1-88.73,0C1222.64,166,1242.66,145.76,1266.89,145.76Z"/><path class="cls-1" d="M1603.77,270.3c35.13,0,63.6-28,63.6-61.82V116.63a4.37,4.37,0,0,0-4.22-4.23h-27.35a4.23,4.23,0,0,0-4.23,4.23V206.7c0,15.57-11.79,28-27.8,28-15.79,0-27.35-12.45-27.35-28V116.63a4.23,4.23,0,0,0-4.23-4.23h-27.35a4.37,4.37,0,0,0-4.22,4.23v91.85C1540.61,242.28,1568.85,270.3,1603.77,270.3Z"/><path class="cls-1" d="M1972.65,263.85V239.61a4.22,4.22,0,0,0-4.22-4.23h-61.6v-30h50.71a4.22,4.22,0,0,0,4.22-4.23V176.9a4.37,4.37,0,0,0-4.22-4.23h-50.71V145.1h61.6a4.22,4.22,0,0,0,4.22-4.23V116.63a4.22,4.22,0,0,0-4.22-4.23h-92.07a4.22,4.22,0,0,0-4.22,4.23V263.85a4.22,4.22,0,0,0,4.22,4.23h92.07A4.22,4.22,0,0,0,1972.65,263.85Z"/><path class="cls-1" d="M2262.6,140.87V116.63a4.22,4.22,0,0,0-4.22-4.23h-98.74a4.22,4.22,0,0,0-4.22,4.23v24.24a4.22,4.22,0,0,0,4.22,4.23h31.8V263.85a4.38,4.38,0,0,0,4.23,4.23h26.68a4.38,4.38,0,0,0,4.23-4.23V145.1h31.8A4.22,4.22,0,0,0,2262.6,140.87Z"/><path class="cls-1" d="M2543.43,112.4h-98.74a4.22,4.22,0,0,0-4.22,4.23v24.24a4.22,4.22,0,0,0,4.22,4.23h31.8V263.85a4.38,4.38,0,0,0,4.23,4.23h26.68a4.38,4.38,0,0,0,4.23-4.23V145.1h31.8a4.22,4.22,0,0,0,4.22-4.23V116.63A4.22,4.22,0,0,0,2543.43,112.4Z"/><path class="cls-1" d="M2835.16,145.1a4.22,4.22,0,0,0,4.22-4.23V116.63a4.22,4.22,0,0,0-4.22-4.23h-92.07a4.22,4.22,0,0,0-4.22,4.23V263.85a4.22,4.22,0,0,0,4.22,4.23h92.07a4.22,4.22,0,0,0,4.22-4.23V239.61a4.22,4.22,0,0,0-4.22-4.23h-61.6v-30h50.71a4.22,4.22,0,0,0,4.22-4.23V176.9a4.37,4.37,0,0,0-4.22-4.23h-50.71V145.1Z"/><path class="cls-1" d="M545,462.62c-17.57-7.12-24.24-13.34-24.24-21.57,0-6,6-11.34,14-11.34,13.57,0,29.8,12.23,31.81,13.34,2,1.56,6-.44,7.56-2.89L585.5,423c.89-1.55,1.33-5.56-1.33-7.12-6.68-4.89-24.46-16.68-47.59-16.68-34.25,0-51.38,22.24-51.38,44.26,0,26.69,24,41.59,43.15,49.15,15.12,6,22.9,13.12,22.9,22.46,0,7.79-6.45,13.34-15.35,13.34-14.68,0-30.69-11.79-31.58-12.23-1.55-1.11-5.78-1.56-7.56,1.33L486.32,536c-1.78,3.11-1.11,4,1.11,6.23,5.11,5.11,21.13,17.12,50,17.12,32.69,0,52.48-23.13,52.48-46C590,483.08,562.37,469.52,545,462.62Z"/><path class="cls-1" d="M886.34,401.47H787.6a4.22,4.22,0,0,0-4.22,4.23v24.24a4.22,4.22,0,0,0,4.22,4.23h31.8V552.91a4.38,4.38,0,0,0,4.23,4.23h26.68a4.38,4.38,0,0,0,4.23-4.23V434.16h31.8a4.22,4.22,0,0,0,4.22-4.23V405.69A4.22,4.22,0,0,0,886.34,401.47Z"/><path class="cls-1" d="M1118,482.19v70.72a4.22,4.22,0,0,0,4.22,4.23h26.46a4.37,4.37,0,0,0,4.22-4.23V482l49.82-74.05a4.12,4.12,0,0,0-3.56-6.45h-28.91a4.1,4.1,0,0,0-3.56,2l-30.91,45.59-30.91-45.59a4.41,4.41,0,0,0-3.55-2h-28.92a4.12,4.12,0,0,0-3.55,6.45Z"/><path class="cls-1" d="M1393.74,557.14h83.62a4.22,4.22,0,0,0,4.22-4.23V528.67a4.22,4.22,0,0,0-4.22-4.23h-52.93V405.69a4.38,4.38,0,0,0-4.23-4.23h-26.46a4.22,4.22,0,0,0-4.22,4.23V552.91A4.22,4.22,0,0,0,1393.74,557.14Z"/><path class="cls-1" d="M1680.79,401.47h26.69a4.22,4.22,0,0,1,4.22,4.22V552.91a4.23,4.23,0,0,1-4.23,4.23h-26.69a4.22,4.22,0,0,1-4.22-4.22V405.69A4.23,4.23,0,0,1,1680.79,401.47Z"/><path class="cls-1" d="M2048.36,401.47h-26.68a4.23,4.23,0,0,0-4.23,4.23v78.95h-.22l-88.73-85.4h-5.56a4.18,4.18,0,0,0-4.23,4l.23,149.67a4.37,4.37,0,0,0,4.22,4.23h26.47a4.22,4.22,0,0,0,4.22-4.23V470h.22l87.84,88.29a6.56,6.56,0,0,0,2.9,1.11h3.55a4.18,4.18,0,0,0,4.23-4V405.69A4.38,4.38,0,0,0,2048.36,401.47Z"/><path class="cls-1" d="M2381.23,477.08h-44.7a4.09,4.09,0,0,0-4.23,4.23v22a4,4,0,0,0,4.23,4h14v12.9a52.5,52.5,0,0,1-19.79,3.56c-24.24,0-44-20-44-44.26,0-24.46,19.57-44.92,43.81-44.92,10.9,0,20.68,2.89,29.14,10.68a4.7,4.7,0,0,0,6-.22l17.57-18.68a3.9,3.9,0,0,0-.45-6c-15.12-13.12-35.58-20.9-54.26-20.9a79.84,79.84,0,0,0,0,159.67c32.24,0,55.15-14.45,55.15-14.45a5.5,5.5,0,0,0,1.78-3.56l-.23-59.82A4.18,4.18,0,0,0,2381.23,477.08Z"/><path class="cls-1" d="M1072.21,872.66c-4.37-5.26-8.93-10.42-13.49-15.57a2.56,2.56,0,0,1-.31-3.56q4.2-6.43,8.16-13c3.32-5.45,6.68-10.9,9.76-16.44,1.66-3,.88-5.5-1.38-6.43-2.09-.86-4.5,0-6.67,2.85-4,5.22-7.83,10.53-11.66,15.83-2.25,3.11-4.34,6.3-6.81,9.91-2-3-3.64-5.49-5.27-8-2.41-3.73-4.58-7.58-7.25-11.18-1.92-2.58-5.55-3.31-8.84-2.38a6.9,6.9,0,0,0-5.3,6.33c-.46,5.17,2.48,9.47,5.18,13.74,3.25,5.15,7.1,10,10.75,15a2.46,2.46,0,0,1,.13,3.23c-2,2.94-3.89,5.91-5.61,9-4.82,8.5-11.28,16.57-10.74,26.52a2.58,2.58,0,0,0,.88,1.91,2.72,2.72,0,0,0,2.18-.26,28,28,0,0,0,5.21-4.64c3.67-4.89,7.09-9.92,10.48-14.95,2.24-3.32,4.25-6.75,6.52-10.38,3.11,2.95,5.86,5.68,8.76,8.29,3.43,3.09,7,6.07,11.86,7.72,2.64.9,6.59.71,8.08-.61,2.09-1.84,1.21-3.95.21-5.79A44.5,44.5,0,0,0,1072.21,872.66Z"/><path class="cls-1" d="M1676.23,705.25a55.84,55.84,0,0,0,.78-11.31,5.11,5.11,0,0,0-2.45-3.77c-.9-.43-3.13.41-3.86,1.38-10.59,14-21.4,27.86-28.68,44-8,17.64-15.55,35.47-23.31,53.21-.39.9-.84,1.77-1.26,2.65,1.24-8.33,3-16.44,4.84-24.51,4-17.26,8.16-34.49,12.16-51.75,1-4.13-.87-7.29-4.53-8.64s-6.95,0-9,3.78c-4.93,9.22-10.08,18.34-14.52,27.8a800.07,800.07,0,0,0-42,109.56,116.92,116.92,0,0,0-3.67,18.3,7.24,7.24,0,0,0,6.68,8.12,7.83,7.83,0,0,0,8.71-6.49c.16-.8.24-1.63.47-2.41,7.19-24.47,14.34-49,21.63-73.39,1.63-5.44,3.77-10.73,5.67-16.09-1.68,11.72-4.09,23.24-5.74,34.87-1.74,12.26-2.87,24.62-4,37a6.92,6.92,0,0,0,6,7.38,7.33,7.33,0,0,0,8.31-5.27c.66-2,1.24-4.12,2-6.14,3-8.4,6.26-16.71,9-25.19,11-34.19,23.38-67.82,39.33-100,2.33-4.7,4.9-9.28,7.35-13.92a3.67,3.67,0,0,1-.06,2.58c-9.15,27.63-18.48,55.2-27.44,82.89-12.06,37.26-23.9,74.59-29.44,113.55-.57,4-.79,8-1.18,12l1.42.37a64.51,64.51,0,0,0,3.11-6.57c4.56-13.17,9.17-26.32,13.45-39.58q17.06-52.81,33.84-105.71C1666,744.51,1672.53,725.26,1676.23,705.25Z"/><path class="cls-1" d="M1830.63,854.45a61.6,61.6,0,0,1-10.85,1.76c-4.89.23-6.42-.91-7.79-5.66a105.75,105.75,0,0,1-2.35-11.74c-.54-3.23-.6-6.56-1.36-9.73-.93-3.92-3.18-4.63-6.54-2.71a3.11,3.11,0,0,1-2.79,0c-4.84-3.91-8.8-3.91-13.22.55a48.55,48.55,0,0,0-5.81,7.14c-4.35,6.5-8.27,13.26-9.1,21.26-.44,4.23-2.85,6.91-7,7.46-.53-5.17-1.24-10.34-1.57-15.53-.46-7.3-.16-14.46,3.06-21.36,3.33-7.14,1.36-16.75-3.87-22-2.82-2.85-5.91-2.63-7.21.43-3.5,8.2-6.87,16.46-10.66,24.52-3.32,7.06-7.16,13.88-13.3,19-.86.72-1.84,1.3-2.76,2l-1-.58c1.1-5.28,2.26-10.55,3.3-15.84a70.48,70.48,0,0,0,1.54-10,4.16,4.16,0,0,0-2.38-3.27c-1-.23-2.62,1-3.57,2-1.17,1.22-1.87,2.88-2.88,4.28-2.93,4-5.76,8.18-8.91,12-3,3.72-6.39,7.15-9.61,10.71l-.72-.55c.26-3.26.58-6.52.76-9.78.36-6.53.71-13.06.92-19.59.06-2.06-.69-4-3.18-4.16s-3.14,1.8-3.62,3.81a85.34,85.34,0,0,1-10,24,26.49,26.49,0,0,1-9.78,9.55c.37-3.08.57-5.58,1-8,1.33-7.77,2.8-15.53,4.12-23.3.54-3.21-.09-6-2.93-8.21a11.32,11.32,0,0,1-2.64-3.68c-1.85-3.43-4-4.57-7.8-4-3.67.57-6.33,2.79-8.65,5.48a100,100,0,0,0-16.8,28.13c-2,5-3.85,10.15-3.26,15.79.63,5.93,5.11,9.15,11,7.84a20.77,20.77,0,0,0,10.38-6.25c1.11-1.13,2.07-2.42,3.1-3.63a4.24,4.24,0,0,1,.85,2.27c.52,5.16,4.2,8.41,9.37,8,5.46-.44,9.19-3.75,12.11-8.06,1.58-2.33,2.94-4.82,4.4-7.24a24.37,24.37,0,0,1,.26,5.48c0,5.55,1.79,8.8,5.3,9.71,4.13,1.07,7.63-1,10.24-5.94a4.74,4.74,0,0,1,.39-.83q3.79-4.68,7.61-9.33l.82.42c0,1.7-.07,3.41,0,5.11.23,4.53,3,7.12,7.53,7.09,6.19,0,9.77-4.14,13.22-8.44,7.24-9,10.85-19.91,15.33-30.35,1.31-3.05,2.55-6.13,3.82-9.2,2.16,3.74,1.54,7.13-.26,10.37a33.89,33.89,0,0,0-4.7,17.91c.3,8.88.48,17.76.81,26.63.16,4.2,3.27,6.46,7.49,6,5.33-.54,8.82-4,12.75-7.67,3,3.47,6.72,3.4,9.9,1.53s5.85-4.66,8.43-7.35c1.83-1.91,3.15-4.31,5-6.95.36,1.41.56,2.19.76,3,1.79,6.77,5.17,12.67,12,15,9.35,3.21,18.6,2.39,27-3.51,3.49-2.46,4.6-5.48,3.2-8.63S1835,853.43,1830.63,854.45Zm-164.17-19c-3.33,4.72-6.9,9.26-10.37,13.88l-.71-.55c.58-5.94,6.06-17.45,8.67-18.3-.84-4.57,2.95-7,4.37-10.48l.82.2c-.09,1-.18,2.08-.28,3.12s-.64,2.25-.24,3C1670.68,830.16,1668.33,832.83,1666.46,835.49Zm119.77,16.72c0-4.4,3.19-9.41,8.29-14.07l.67.53Z"/><path class="cls-1" d="M1527.33,817.64a119.49,119.49,0,0,0-11.7,6c-2.8,1.64-5.31,3.75-8.33,5.93-1.08-2.44-1.92-4.61-3-6.67-1.34-2.59-1.19-4.75.36-7.39q9.21-15.63,17.85-31.6a17.48,17.48,0,0,0,1.94-7.3c.18-3.73-2.19-5.64-5.93-5.26a48.75,48.75,0,0,0-20.35,6.49,18.09,18.09,0,0,0-9.36,15.93,75.91,75.91,0,0,0,2.45,21,7.19,7.19,0,0,1-.66,5.11q-15.36,23.57-31,46.93c-5.37,8-11.1,15.75-16.46,23.75-1.95,2.91-1.52,7.26.3,8.9s5.08,1.44,8.35-.5a6.38,6.38,0,0,0,1-.68c3.05-2.73,6.27-5.31,9.11-8.24,10.49-10.83,20.8-21.83,31.27-32.68,3.32-3.44,6.92-6.62,10.72-10.23,2.41,5.17,4.57,9.89,6.81,14.57,2,4.1,5.64,5.61,9,3.79s3.78-5.67,1.4-9.59c-2.81-4.64-5.35-9.45-8.07-14.14a2.26,2.26,0,0,1,.59-3.37c3.58-3.07,7.14-6.18,10.52-9.47a59,59,0,0,0,6.23-7.17c.68-.91.52-2.45.74-3.7C1529.83,817.86,1528.33,817.19,1527.33,817.64Zm-29.19,20c-5.46,5.93-11,11.79-16.52,17.67l-1.14-1.12,15.83-24.2c.92,2.08,1.79,3.76,2.38,5.54A2.56,2.56,0,0,1,1498.14,837.6Zm-.21-32.19c-.36-4.92-.78-9.83-1-14.76a5.05,5.05,0,0,1,1-2.84c4.15-5.94,10.07-8.91,17.75-10.39L1499,805.52Z"/><path class="cls-1" d="M1428,857c-.28-8.7,0-17.41-.09-26.11-.06-3.94-.37-8-5.55-8.69,0-.86,0-1.48-.12-2.08-.62-4.41-3.11-5.75-6.73-3.22a44.58,44.58,0,0,0-7.41,6.72c-4.1,4.55-9,8-14.5,11.18-2.22-7-7.86-8.23-13.91-8.88-2.74-.29-5.43-1-8.15-1.48s-2.89-1.82-1.72-3.91a28.3,28.3,0,0,1,12.56-11.82,13.15,13.15,0,0,1,6.27-.79,3.57,3.57,0,0,1,2.36,2.36c.48,2.18.26,4.5.62,6.71.16,1,1,2.55,1.6,2.55a3.54,3.54,0,0,0,2.8-1.63,51.89,51.89,0,0,0,2.57-8.77c1.16-6-1.79-9.68-7.86-10.3-13.18-1.36-22.89,4.56-29.93,15-6.72,10-2.51,18.54,9.53,20.2,4.06.56,8.17.75,12.22,1.35,1,.15,1.87,1.26,2.8,1.92-.77.85-1.38,2.05-2.34,2.48-4.3,1.91-8.73,3.53-13.06,5.38-5.83,2.5-11.72,4.9-17.37,7.77a10.38,10.38,0,0,0-4.94,11.61c1,3.37,5.33,5.77,10.12,5.14,9.67-1.27,17.8-5.93,25-12.25,4.65-4.07,8.91-8.52,10.77-14.67,1.05-3.48,2.91-5.16,6.07-5.83-.89,4.6-2.11,9.45-2.66,14.37a7,7,0,0,0,4.23,7.54c3.25,1.28,6.28,0,8.64-2.48a33.75,33.75,0,0,0,2.89-4c.55-.78,1-1.59,1.63-2.48,0,3.54-.08,6.81,0,10.07.17,5.46,2,10.2,6.3,13.79,2.39,2,6.35,2.6,8.31,1.23,2.8-2,1.55-4.48,1-7C1429.21,864.42,1428.11,860.72,1428,857Zm-69.59.53c5.42-5.7,12.66-7.92,19.81-10.33C1372.33,852.06,1366.17,856.34,1358.39,857.53Zm51.32-11.74-1-.43c2.16-5.54,4.26-11.11,6.58-16.58.26-.61,1.78-.69,3.37-1.25C1417.18,835.13,1413.42,840.45,1409.71,845.79Z"/><path class="cls-1" d="M1340.62,823.72a23.83,23.83,0,0,0-3.1,4.57q-6.53,12-12.93,24.12c-2.3,4.32-4.55,8.67-6.83,13l-.61-.39c1.93-8.8,4.07-17.56,5.72-26.41A172.9,172.9,0,0,0,1325,821c.16-1.92-1.11-4-3.28-3.6a5.29,5.29,0,0,0-3.38,3.2c-3.9,13.38-7.69,26.79-11.24,40.27-1.91,7.23-3.59,14.55-2.37,22.16.38,2.36,1.42,4.05,3.73,4.77a5.15,5.15,0,0,0,6-1.89,35.14,35.14,0,0,0,3.71-6c4-8.54,7.83-17.15,11.73-25.73.45-1,1-2,1.46-2.93-.82,5.4-2.23,10.57-2.76,15.84a115.94,115.94,0,0,0-.36,17.47c.26,5.09,3.89,8.89,7.88,9.38,2.81.34,4.71-1.28,3.74-3.46-3.5-7.94-2.55-16.2-1.43-24.26,1.54-11,4-22,6-33a45,45,0,0,0,.84-7.91,4.38,4.38,0,0,0-1.79-3.15C1343,821.93,1341.33,822.93,1340.62,823.72Z"/><path class="cls-1" d="M1116,823.39c2.76-4.81,2.57-8.08-.47-10.24s-6.27-1.26-9.74,2.74c-12.7,14.63-15.34,32-13,50.38.63,5,3.25,9.61,8.35,11.76,7.33,3.1,14.08.54,18.12-6.79,5.2-9.42,5.89-19.72,5.29-30.14A25.33,25.33,0,0,0,1116,823.39Zm-7.8,43.55c-1.88-11.67-.58-22.27,1.85-33.29,5.65,3,6.65,7.66,6.63,12.95C1116.64,854.19,1115.29,861.17,1108.2,866.94Z"/><path class="cls-1" d="M1154.32,852.65c-.45-2-1.85-3.62-3.91-3a6.69,6.69,0,0,0-3.35,3.33c-.65,1.29-.53,3-.64,4.52-.77,10.31-1.74,20.56-4.41,30.63-1.23,4.64-1.14,9.64-1.65,14.47l1.21.45c3.59-1.71,6.81-3.87,9-7.36,6.21-9.75,7.35-20.47,6-31.62C1156.08,860.24,1155.19,856.44,1154.32,852.65Z"/><path class="cls-1" d="M1306.22,777.27c.32-6,1-11.9,1.51-17.86.15-1.81-.07-3.58-1.93-4.2s-2.8.45-3.51,2.15c-7,16.57-19.24,27.38-33.69,35.8a84.71,84.71,0,0,1-8.46,3.74c.78-4,1.33-7.19,2-10.31,3.59-17.19,6.68-34.41,5.07-52.21a27.48,27.48,0,0,0-4.55-13.41c-3.45-5.08-9.6-7.27-15.07-5.06-6.06,2.45-10.29,7.47-13.82,12.91-9.75,15-15.22,31.51-14.22,50.25.71,13.23,8.53,23.47,20.75,25.72.75.14,1.49.38,2.5.65a545.31,545.31,0,0,1-17.47,60.07A32.33,32.33,0,0,1,1214,852.22c-3.43-7-6.62-14.22-9.9-21.34-.9-2-3.51-2.45-4.24-.61-1.27,3.19-2.71,6.5-3,9.88-1,10.67,2.48,20.09,8.69,28.15,3.49,4.53,7.89,8.24,12.12,12.57-.49.87-1.43,2.35-2.21,3.92a7.91,7.91,0,0,0,2.18,9.86,6.6,6.6,0,0,0,9.17-1.17,49.08,49.08,0,0,0,3.89-5.41c.9-1.42,1.77-1.92,3.5-1.51a50.93,50.93,0,0,0,25.26-.16c19.8-5.46,33.11-19.15,40.44-39.57,4-11.11,4.07-22.88,4.74-34.52S1305.6,788.95,1306.22,777.27Zm-63.76,19.54c-8.67-.95-15.05-8.69-15.32-18.08-.53-18.29,5.32-34,16.1-47.87a25.06,25.06,0,0,1,5-4.57c1.81-1.33,3.47-.89,4.09,1.56a47.5,47.5,0,0,1,1.39,7.47c.24,2.73.06,5.5.06,8.26-.1,13.84-3.9,27-6.4,40.37-.68,3.63-1.59,7.2-2.21,10.84C1244.89,796.67,1244.05,797,1242.46,796.81Zm52.9,18.07c-.75,7.43-1.37,15.06-3.46,22.12-5.48,18.54-17.51,30.31-35.12,34.64-5.4,1.33-11.33.21-17.34.21,2.21-6.7,4.5-12.95,6.35-19.35,3.81-13.22,7.55-26.48,11-39.82,1.12-4.37,2.18-7.21,7-8.77,13.5-4.32,24.18-13.5,33-25.25.48-.65,1-1.28,1.76-2.31C1297.48,789.56,1296.63,802.25,1295.36,814.88Z"/></svg>