<svg id="Layer_1" data-name="Layer 1" xmlns="http://www.w3.org/2000/svg" viewBox="0 0 1241.01 959.81"><defs><style>.cls-1{fill:#d5c7b5;}</style></defs><title>navigation-xo</title><path class="cls-1" d="M604.35,649.6c-45.28-54.51-92.57-107.92-139.72-161.36-11-12.44-12.35-23-3.24-36.92q43.56-66.59,84.56-134.3c34.42-56.5,69.2-112.9,101.15-170.33,17.21-30.91,9.14-57-14.26-66.62-21.68-8.89-46.64.22-69.1,29.57-41.39,54.11-81.16,109.06-120.8,164.06C419.67,306,398,339,372.35,376.36c-20.35-30.94-37.69-56.93-54.61-83.11-25-38.65-47.42-78.55-75.16-115.81C222.68,150.72,185,143.17,151,152.78c-33.84,9.54-52.12,34.22-54.87,65.64-4.73,53.54,25.7,98.13,53.64,142.35,33.71,53.36,73.57,104.12,111.43,155.68,8.49,11.57,9.53,21.14,1.33,33.42-20.42,30.47-40.25,61.28-58.15,92.78-50,88-116.87,171.65-111.23,274.77.36,6.94,3.27,15.88,9.08,19.83,4.12,2.79,17.86,1,22.62-2.7C144,919.48,165,904.71,178.73,886.47c38.05-50.69,73.48-102.74,108.61-154.87,23.17-34.43,44-69.93,67.54-107.52,32.18,30.56,60.71,58.85,90.82,85.95,35.59,32,72.54,62.87,122.87,80,27.35,9.32,68.29,7.37,83.69-6.27,21.62-19.11,12.51-40.89,2.14-59.94A461.09,461.09,0,0,0,604.35,649.6Z"/><path class="cls-1" d="M1058.07,139.15c28.55-49.8,26.61-83.77-4.86-106.07-31.7-22.49-64.92-13.07-100.9,28.39-131.56,151.57-158.91,331.11-135,522C823.8,635.21,851,683,903.79,705.3c76,32.1,145.88,5.56,187.76-70.3,53.9-97.59,61-204.31,54.84-312.34C1142.21,250.15,1111.71,188,1058.07,139.15Zm-80.8,451.21c-19.45-120.91-6-230.75,19.15-344.89,58.53,31,68.87,79.4,68.65,134.13C1064.75,458.23,1050.71,530.59,977.27,590.36Z"/></svg>