<svg id="Layer_1" data-name="Layer 1" xmlns="http://www.w3.org/2000/svg" viewBox="0 0 1000 1000"><defs><style>.cls-1{font-size:568.68px;font-family:FontAwesome, FontAwesome;}.cls-1,.cls-2{fill:#d6c8b5;}</style></defs><title>hoveremail</title><text class="cls-1" transform="translate(215.66 705.44)"></text><path class="cls-2" d="M500,977c-127.41,0-247.2-49.62-337.29-139.71S23,627.41,23,500,72.62,252.8,162.71,162.71,372.59,23,500,23,747.2,72.62,837.29,162.71,977,372.59,977,500,927.38,747.2,837.29,837.29,627.41,977,500,977Zm0-927.64c-120.37,0-233.53,46.87-318.65,132S49.36,379.63,49.36,500s46.87,233.53,132,318.65,198.28,132,318.65,132,233.53-46.87,318.65-132,132-198.28,132-318.65-46.87-233.53-132-318.65S620.37,49.36,500,49.36Z"/></svg>