<svg id="Layer_1" data-name="Layer 1" xmlns="http://www.w3.org/2000/svg" xmlns:xlink="http://www.w3.org/1999/xlink" viewBox="0 0 1000 1000"><defs><style>.cls-1{fill:none;}.cls-2{fill:#d6c8b5;}.cls-3{clip-path:url(#clip-path);}</style><clipPath id="clip-path"><rect class="cls-1" x="230" y="230" width="540" height="540"/></clipPath></defs><title>hoverinstagram</title><path class="cls-2" d="M500,977c-127.41,0-247.2-49.62-337.29-139.71S23,627.41,23,500,72.62,252.8,162.71,162.71,372.59,23,500,23,747.2,72.62,837.29,162.71,977,372.59,977,500,927.38,747.2,837.29,837.29,627.41,977,500,977Zm0-927.64c-120.37,0-233.53,46.87-318.65,132S49.36,379.63,49.36,500s46.87,233.53,132,318.65,198.28,132,318.65,132,233.53-46.87,318.65-132,132-198.28,132-318.65-46.87-233.53-132-318.65S620.37,49.36,500,49.36Z"/><g class="cls-3"><path class="cls-2" d="M500,278.65c72.09,0,80.63.28,109.1,1.57,26.32,1.2,40.62,5.6,50.14,9.3a89.41,89.41,0,0,1,51.24,51.24c3.7,9.51,8.1,23.81,9.3,50.14,1.3,28.47,1.57,37,1.57,109.1s-.28,80.63-1.57,109.1c-1.2,26.33-5.6,40.62-9.3,50.14a89.41,89.41,0,0,1-51.24,51.24c-9.51,3.7-23.81,8.1-50.14,9.3-28.47,1.3-37,1.57-109.1,1.57s-80.64-.27-109.1-1.57c-26.32-1.2-40.62-5.6-50.14-9.3a89.41,89.41,0,0,1-51.24-51.24c-3.7-9.51-8.1-23.81-9.3-50.14-1.3-28.47-1.57-37-1.57-109.1s.28-80.63,1.57-109.1c1.2-26.32,5.6-40.62,9.3-50.14a89.41,89.41,0,0,1,51.24-51.24c9.51-3.7,23.81-8.1,50.14-9.3,28.47-1.3,37-1.57,109.1-1.57M500,230c-73.33,0-82.52.31-111.32,1.62s-48.37,5.88-65.54,12.55a138.06,138.06,0,0,0-79,79c-6.68,17.18-11.24,36.8-12.55,65.54S230,426.67,230,500s.31,82.52,1.62,111.32,5.87,48.37,12.55,65.54a138.06,138.06,0,0,0,79,79c17.17,6.67,36.8,11.24,65.54,12.55S426.67,770,500,770s82.52-.31,111.32-1.62,48.37-5.88,65.54-12.55a138.06,138.06,0,0,0,79-79c6.68-17.18,11.24-36.8,12.55-65.54S770,573.33,770,500s-.31-82.52-1.62-111.32-5.87-48.37-12.55-65.54a138.06,138.06,0,0,0-79-79c-17.17-6.67-36.8-11.24-65.54-12.55S573.33,230,500,230"/><path class="cls-2" d="M500,361.35A138.65,138.65,0,1,0,638.65,500,138.65,138.65,0,0,0,500,361.35M500,590a90,90,0,1,1,90-90,90,90,0,0,1-90,90"/><path class="cls-2" d="M676.53,355.87a32.4,32.4,0,1,1-32.4-32.4,32.4,32.4,0,0,1,32.4,32.4"/></g></svg>